<svg width="259" height="388" viewBox="0 0 259 388" fill="none" xmlns="http://www.w3.org/2000/svg">
<rect x="3.38333" y="413.19" width="410.289" height="254.708" rx="20" transform="rotate(-90.4725 3.38333 413.19)" fill="black"/>
<path d="M137.057 156.136L119.603 156.28L119.513 145.456L121.78 145.437L121.848 153.627L127.166 153.584L127.105 146.169L129.363 146.15L129.424 153.565L137.035 153.502L137.057 156.136ZM119.465 139.584L136.919 139.44L136.941 142.074L119.487 142.217L119.465 139.584ZM119.317 121.661L136.771 121.517L136.791 123.938L124.063 132.915L124.065 133.077L136.865 132.972L136.887 135.605L119.433 135.749L119.413 133.312L132.158 124.325L132.156 124.164L119.339 124.269L119.317 121.661ZM119.169 103.732L136.623 103.588L136.643 106.009L123.916 114.986L123.917 115.148L136.718 115.043L136.739 117.676L119.285 117.82L119.265 115.382L132.01 106.396L132.008 106.234L119.191 106.34L119.169 103.732ZM127.74 84.6574C129.603 84.642 131.208 84.9697 132.555 85.6405C133.895 86.3112 134.931 87.2374 135.663 88.4189C136.388 89.5948 136.757 90.9355 136.77 92.4412C136.782 93.9525 136.436 95.3048 135.729 96.4982C135.018 97.6859 133.994 98.6262 132.659 99.319C131.324 100.012 129.727 100.366 127.869 100.381C126.006 100.397 124.403 100.069 123.063 99.3982C121.716 98.7274 120.68 97.8041 119.954 96.6283C119.223 95.4468 118.851 94.1003 118.839 92.589C118.826 91.0834 119.176 89.7367 119.888 88.549C120.594 87.3556 121.615 86.4125 122.95 85.7197C124.279 85.0269 125.876 84.6728 127.74 84.6574ZM127.761 87.2653C126.341 87.277 125.147 87.517 124.179 87.9852C123.205 88.4478 122.472 89.0788 121.978 89.8784C121.479 90.6723 121.234 91.5692 121.242 92.5692C121.25 93.5749 121.511 94.4705 122.023 95.256C122.529 96.0417 123.273 96.6606 124.254 97.1127C125.229 97.5592 126.427 97.7766 127.848 97.7649C129.268 97.7532 130.465 97.5161 131.438 97.0535C132.406 96.5852 133.14 95.9542 133.639 95.1603C134.132 94.3664 134.375 93.4666 134.367 92.461C134.358 91.461 134.101 90.5682 133.594 89.7826C133.082 88.9913 132.338 88.3725 131.363 87.9259C130.382 87.4738 129.181 87.2536 127.761 87.2653ZM118.98 80.7877L133.155 75.8127L133.154 75.6167L118.898 70.8762L118.875 68.0297L136.381 74.1668L136.406 77.2093L119.003 83.6342L118.98 80.7877ZM136.311 65.672L136.334 68.4674L118.828 62.3303L118.803 59.2878L136.205 52.8628L136.228 55.6582L121.985 60.7104L121.986 60.8468L136.311 65.672ZM129.472 65.2597L129.397 56.1918L131.613 56.1735L131.687 65.2414L129.472 65.2597Z" fill="white"/>
<rect x="106.846" y="368.772" width="76.0381" height="47.0574" rx="8" transform="rotate(-90.4725 106.846 368.772)" fill="url(#paint0_linear_147_203)"/>
<line x1="130.243" y1="368.079" x2="129.624" y2="293.044" stroke="#AFAFA7" stroke-linecap="round"/>
<line x1="153.105" y1="332.455" x2="107.049" y2="332.834" stroke="#AFAFA7" stroke-linecap="round"/>
<line x1="0.5" y1="-0.5" x2="77.4018" y2="-0.5" transform="matrix(0.517349 -0.855775 0.80632 0.591479 110.915 364.778)" stroke="#AFAFA7" stroke-linecap="round"/>
<line x1="0.5" y1="-0.5" x2="79.628" y2="-0.5" transform="matrix(-0.500422 -0.865782 0.81947 -0.573122 149.012 366.048)" stroke="#AFAFA7" stroke-linecap="round"/>
<path d="M19.392 45.0841C31.3037 35.1993 38.1987 35.7468 50.3367 44.8289" stroke="white" stroke-width="3" stroke-linecap="round"/>
<path d="M23.0278 52.966C32.0685 46.4579 37.2648 46.634 46.8314 52.7697" stroke="white" stroke-width="3" stroke-linecap="round"/>
<path d="M25.4831 62.0434C32.2504 55.5541 36.148 55.7408 43.3358 61.8961" stroke="white" stroke-width="3" stroke-linecap="round"/>
<path d="M27.9286 69.935C32.9037 66.6772 35.7616 66.7631 41.0206 69.827" stroke="white" stroke-width="3" stroke-linecap="round"/>
<defs>
<linearGradient id="paint0_linear_147_203" x1="121.923" y1="368.772" x2="168.367" y2="415.269" gradientUnits="userSpaceOnUse">
<stop offset="0.144231" stop-color="white"/>
<stop offset="0.841346" stop-color="#1D1D1D"/>
</linearGradient>
</defs>
</svg>
