<svg width="259" height="162" viewBox="0 0 259 162" fill="none" xmlns="http://www.w3.org/2000/svg">
<g filter="url(#filter0_n_123_164)">
<rect y="2.67798" width="259" height="158" fill="url(#paint0_radial_123_164)" style="mix-blend-mode:luminosity"/>
</g>
<path d="M161.887 83.9648V73.0558H168.652V74.4727H163.533V77.7965H168.167V79.2081H163.533V83.9648H161.887ZM172.322 73.0558V83.9648H170.676V73.0558H172.322ZM183.524 73.0558V83.9648H182.011L176.466 75.9641H176.365V83.9648H174.719V73.0558H176.242L181.793 81.0671H181.894V73.0558H183.524ZM194.73 73.0558V83.9648H193.217L187.672 75.9641H187.571V83.9648H185.925V73.0558H187.449L192.999 81.0671H193.1V73.0558H194.73ZM206.607 78.5103C206.607 79.6751 206.394 80.6765 205.968 81.5146C205.542 82.3491 204.958 82.9918 204.216 83.4428C203.477 83.8903 202.637 84.114 201.696 84.114C200.752 84.114 199.908 83.8903 199.166 83.4428C198.427 82.9918 197.845 82.3473 197.419 81.5092C196.993 80.6712 196.78 79.6715 196.78 78.5103C196.78 77.3455 196.993 76.3459 197.419 75.5114C197.845 74.6733 198.427 74.0305 199.166 73.5831C199.908 73.1321 200.752 72.9066 201.696 72.9066C202.637 72.9066 203.477 73.1321 204.216 73.5831C204.958 74.0305 205.542 74.6733 205.968 75.5114C206.394 76.3459 206.607 77.3455 206.607 78.5103ZM204.977 78.5103C204.977 77.6225 204.834 76.875 204.546 76.2678C204.262 75.657 203.871 75.1953 203.374 74.8828C202.88 74.5668 202.321 74.4087 201.696 74.4087C201.068 74.4087 200.506 74.5668 200.013 74.8828C199.519 75.1953 199.129 75.657 198.841 76.2678C198.557 76.875 198.415 77.6225 198.415 78.5103C198.415 79.3981 198.557 80.1474 198.841 80.7582C199.129 81.3654 199.519 81.8271 200.013 82.1431C200.506 82.4556 201.068 82.6119 201.696 82.6119C202.321 82.6119 202.88 82.4556 203.374 82.1431C203.871 81.8271 204.262 81.3654 204.546 80.7582C204.834 80.1474 204.977 79.3981 204.977 78.5103ZM209.071 73.0558L212.107 81.9407H212.23L215.266 73.0558H217.045L213.119 83.9648H211.218L207.292 73.0558H209.071ZM218.429 83.9648H216.681L220.607 73.0558H222.509L226.435 83.9648H224.688L221.603 75.0373H221.518L218.429 83.9648ZM218.722 79.6928H224.389V81.0778H218.722V79.6928Z" fill="white"/>
<rect x="27.5" y="64.4047" width="48" height="29.1906" rx="8" fill="url(#paint1_linear_123_164)"/>
<line x1="28" y1="78.7317" x2="75" y2="78.7317" stroke="#AFAFA7" stroke-linecap="round"/>
<line x1="50" y1="93.0953" x2="50" y2="64.9047" stroke="#AFAFA7" stroke-linecap="round"/>
<line x1="0.5" y1="-0.5" x2="48.4435" y2="-0.5" transform="matrix(0.855532 0.517751 -0.604821 0.796361 30 66.9491)" stroke="#AFAFA7" stroke-linecap="round"/>
<line x1="0.5" y1="-0.5" x2="49.8698" y2="-0.5" transform="matrix(0.873539 -0.486754 0.573074 0.819503 29 90.5742)" stroke="#AFAFA7" stroke-linecap="round"/>
<g filter="url(#filter1_g_123_164)">
<line x1="11" y1="138.54" x2="11" y2="158" stroke="#AFAFA7"/>
</g>
<g filter="url(#filter2_g_123_164)">
<line x1="64.5" y1="138.54" x2="64.5" y2="158" stroke="#AFAFA7"/>
</g>
<g filter="url(#filter3_g_123_164)">
<line x1="82.5" y1="138.54" x2="82.5" y2="158" stroke="#AFAFA7"/>
</g>
<g filter="url(#filter4_g_123_164)">
<line x1="100.5" y1="138.54" x2="100.5" y2="158" stroke="#AFAFA7"/>
</g>
<g filter="url(#filter5_g_123_164)">
<line x1="118.5" y1="138.54" x2="118.5" y2="158" stroke="#AFAFA7"/>
</g>
<g filter="url(#filter6_g_123_164)">
<line x1="135" y1="138.54" x2="135" y2="158" stroke="#AFAFA7"/>
</g>
<g filter="url(#filter7_g_123_164)">
<line x1="152.5" y1="138.54" x2="152.5" y2="158" stroke="#AFAFA7"/>
</g>
<g filter="url(#filter8_g_123_164)">
<line x1="169" y1="138.54" x2="169" y2="158" stroke="#AFAFA7"/>
</g>
<g filter="url(#filter9_g_123_164)">
<line x1="188" y1="138.54" x2="188" y2="158" stroke="#AFAFA7"/>
</g>
<g filter="url(#filter10_g_123_164)">
<line x1="205" y1="138.54" x2="205" y2="158" stroke="#AFAFA7"/>
</g>
<g filter="url(#filter11_g_123_164)">
<line x1="222" y1="138.54" x2="222" y2="158" stroke="#AFAFA7"/>
</g>
<g filter="url(#filter12_g_123_164)">
<line x1="241" y1="138.54" x2="241" y2="158" stroke="#AFAFA7"/>
</g>
<g filter="url(#filter13_g_123_164)">
<line x1="29.5" y1="138.54" x2="29.5" y2="158" stroke="#AFAFA7"/>
</g>
<g filter="url(#filter14_g_123_164)">
<line x1="48" y1="138.54" x2="48" y2="158" stroke="#AFAFA7"/>
</g>
<g filter="url(#filter15_g_123_164)">
<line x1="21" y1="132.516" x2="21" y2="158" stroke="#AFAFA7"/>
</g>
<g filter="url(#filter16_g_123_164)">
<line x1="38.5" y1="132.516" x2="38.5" y2="158" stroke="#AFAFA7"/>
</g>
<g filter="url(#filter17_g_123_164)">
<line x1="56" y1="132.516" x2="56" y2="158" stroke="#AFAFA7"/>
</g>
<g filter="url(#filter18_g_123_164)">
<line x1="73.5" y1="132.516" x2="73.5" y2="158" stroke="#AFAFA7"/>
</g>
<g filter="url(#filter19_g_123_164)">
<line x1="91" y1="132.516" x2="91" y2="158" stroke="#AFAFA7"/>
</g>
<g filter="url(#filter20_g_123_164)">
<line x1="108.5" y1="132.516" x2="108.5" y2="158" stroke="#AFAFA7"/>
</g>
<g filter="url(#filter21_g_123_164)">
<line x1="126" y1="132.516" x2="126" y2="158" stroke="#AFAFA7"/>
</g>
<g filter="url(#filter22_g_123_164)">
<line x1="143.5" y1="132.516" x2="143.5" y2="158" stroke="#AFAFA7"/>
</g>
<g filter="url(#filter23_g_123_164)">
<line x1="161" y1="132.516" x2="161" y2="158" stroke="#AFAFA7"/>
</g>
<g filter="url(#filter24_g_123_164)">
<line x1="178.5" y1="132.516" x2="178.5" y2="158" stroke="#AFAFA7"/>
</g>
<g filter="url(#filter25_g_123_164)">
<line x1="196" y1="132.516" x2="196" y2="158" stroke="#AFAFA7"/>
</g>
<g filter="url(#filter26_g_123_164)">
<line x1="213.5" y1="132.516" x2="213.5" y2="158" stroke="#AFAFA7"/>
</g>
<g filter="url(#filter27_g_123_164)">
<line x1="231" y1="132.516" x2="231" y2="158" stroke="#AFAFA7"/>
</g>
<g filter="url(#filter28_g_123_164)">
<line x1="248.5" y1="132.516" x2="248.5" y2="158" stroke="#AFAFA7"/>
</g>
<path d="M17.4032 23.8652V18.7743H20.3489V19.1919H17.868V21.1085H20.1177V21.5261H17.868V23.8652H17.4032ZM21.4177 23.8652V20.0471H21.8627V23.8652H21.4177ZM21.644 19.3908C21.5528 19.3908 21.4749 19.3601 21.4103 19.2988C21.3457 19.2359 21.3133 19.1605 21.3133 19.0726C21.3133 18.9848 21.3457 18.9102 21.4103 18.8489C21.4749 18.7859 21.5528 18.7544 21.644 18.7544C21.7351 18.7544 21.813 18.7859 21.8776 18.8489C21.9422 18.9102 21.9746 18.9848 21.9746 19.0726C21.9746 19.1605 21.9422 19.2359 21.8776 19.2988C21.813 19.3601 21.7351 19.3908 21.644 19.3908ZM23.4754 21.4789V23.8652H23.0329V20.0471H23.4629V20.6461H23.5027C23.5922 20.4506 23.7314 20.294 23.9203 20.1763C24.1109 20.057 24.3462 19.9973 24.6263 19.9973C24.8832 19.9973 25.1085 20.0512 25.3024 20.1589C25.498 20.265 25.6496 20.4216 25.7573 20.6287C25.8667 20.8359 25.9214 21.0903 25.9214 21.3919V23.8652H25.4789V21.4192C25.4789 21.106 25.3911 20.8583 25.2154 20.676C25.0414 20.4937 24.8078 20.4025 24.5144 20.4025C24.3139 20.4025 24.1358 20.4456 23.98 20.5318C23.8242 20.618 23.7007 20.7422 23.6096 20.9047C23.5201 21.0654 23.4754 21.2568 23.4754 21.4789ZM27.5291 21.4789V23.8652H27.0866V20.0471H27.5166V20.6461H27.5564C27.6459 20.4506 27.7851 20.294 27.974 20.1763C28.1646 20.057 28.3999 19.9973 28.68 19.9973C28.9369 19.9973 29.1622 20.0512 29.3561 20.1589C29.5517 20.265 29.7033 20.4216 29.811 20.6287C29.9204 20.8359 29.9751 21.0903 29.9751 21.3919V23.8652H29.5326V21.4192C29.5326 21.106 29.4448 20.8583 29.2691 20.676C29.0951 20.4937 28.8615 20.4025 28.5681 20.4025C28.3676 20.4025 28.1895 20.4456 28.0337 20.5318C27.8779 20.618 27.7545 20.7422 27.6633 20.9047C27.5738 21.0654 27.5291 21.2568 27.5291 21.4789ZM32.6243 23.9448C32.2946 23.9448 32.0029 23.8611 31.7493 23.6937C31.4974 23.5263 31.3002 23.2952 31.1577 23.0002C31.0152 22.7035 30.9439 22.3613 30.9439 21.9735C30.9439 21.5824 31.0152 21.2386 31.1577 20.9419C31.3002 20.6436 31.4974 20.4116 31.7493 20.2459C32.0029 20.0785 32.2946 19.9949 32.6243 19.9949C32.9541 19.9949 33.245 20.0785 33.4968 20.2459C33.7487 20.4133 33.9459 20.6453 34.0885 20.9419C34.2326 21.2386 34.3047 21.5824 34.3047 21.9735C34.3047 22.3613 34.2335 22.7035 34.091 23.0002C33.9484 23.2952 33.7504 23.5263 33.4968 23.6937C33.245 23.8611 32.9541 23.9448 32.6243 23.9448ZM32.6243 23.5396C32.8895 23.5396 33.114 23.4683 33.298 23.3258C33.4819 23.1833 33.6211 22.9935 33.7156 22.7566C33.8117 22.5196 33.8598 22.2586 33.8598 21.9735C33.8598 21.6885 33.8117 21.4267 33.7156 21.188C33.6211 20.9494 33.4819 20.758 33.298 20.6138C33.114 20.4696 32.8895 20.3975 32.6243 20.3975C32.3608 20.3975 32.1363 20.4696 31.9507 20.6138C31.7667 20.758 31.6267 20.9494 31.5306 21.188C31.4361 21.4267 31.3889 21.6885 31.3889 21.9735C31.3889 22.2586 31.4361 22.5196 31.5306 22.7566C31.6267 22.9935 31.7667 23.1833 31.9507 23.3258C32.1346 23.4683 32.3592 23.5396 32.6243 23.5396ZM38.0949 20.0471L36.7004 23.8652H36.2281L34.8336 20.0471H35.3133L36.4469 23.2811H36.4817L37.6152 20.0471H38.0949ZM39.9108 23.9522C39.6805 23.9522 39.47 23.9075 39.2794 23.818C39.0889 23.7269 38.9372 23.5959 38.8245 23.4252C38.7118 23.2529 38.6555 23.0441 38.6555 22.7988C38.6555 22.6099 38.6911 22.4508 38.7624 22.3216C38.8336 22.1923 38.9347 22.0862 39.0657 22.0034C39.1966 21.9205 39.3515 21.8551 39.5305 21.807C39.7095 21.7589 39.9067 21.7216 40.1221 21.6951C40.3359 21.6686 40.5165 21.6454 40.664 21.6255C40.8132 21.6056 40.9267 21.5742 41.0046 21.5311C41.0825 21.488 41.1214 21.4184 41.1214 21.3223V21.2328C41.1214 20.9726 41.0435 20.7679 40.8877 20.6188C40.7336 20.468 40.5116 20.3926 40.2215 20.3926C39.9465 20.3926 39.7219 20.4531 39.5479 20.574C39.3755 20.695 39.2546 20.8375 39.185 21.0016L38.7649 20.85C38.851 20.6412 38.9704 20.4746 39.1228 20.3503C39.2753 20.2244 39.446 20.1341 39.6349 20.0794C39.8238 20.023 40.0152 19.9949 40.2091 19.9949C40.355 19.9949 40.5066 20.0139 40.664 20.052C40.8231 20.0901 40.9706 20.1564 41.1065 20.2509C41.2424 20.3437 41.3526 20.4738 41.4371 20.6412C41.5216 20.8069 41.5639 21.0173 41.5639 21.2725V23.8652H41.1214V23.2612H41.0941C41.041 23.3739 40.9623 23.4833 40.8579 23.5893C40.7535 23.6954 40.6226 23.7824 40.4652 23.8503C40.3077 23.9183 40.1229 23.9522 39.9108 23.9522ZM39.9705 23.5471C40.2058 23.5471 40.4096 23.4949 40.582 23.3904C40.7543 23.286 40.8869 23.1477 40.9797 22.9753C41.0742 22.8013 41.1214 22.6099 41.1214 22.4011V21.8493C41.0883 21.8807 41.0327 21.9089 40.9549 21.9338C40.8786 21.9586 40.79 21.981 40.6889 22.0009C40.5894 22.0191 40.49 22.0349 40.3906 22.0481C40.2911 22.0614 40.2017 22.073 40.1221 22.0829C39.9067 22.1094 39.7227 22.1509 39.5703 22.2072C39.4178 22.2636 39.301 22.3414 39.2198 22.4409C39.1386 22.5386 39.098 22.6646 39.098 22.8187C39.098 23.0507 39.1808 23.2305 39.3465 23.3581C39.5123 23.4841 39.7202 23.5471 39.9705 23.5471ZM48.7888 20.3652H48.3215C48.2867 20.1912 48.2237 20.0305 48.1326 19.883C48.0431 19.7338 47.9304 19.6038 47.7945 19.4927C47.6586 19.3817 47.5045 19.2955 47.3322 19.2342C47.1598 19.1729 46.9734 19.1422 46.7729 19.1422C46.4514 19.1422 46.158 19.2259 45.8929 19.3933C45.6294 19.5607 45.4181 19.8068 45.259 20.1316C45.1016 20.4547 45.0229 20.8508 45.0229 21.3198C45.0229 21.7921 45.1016 22.1898 45.259 22.513C45.4181 22.8361 45.6294 23.0814 45.8929 23.2488C46.158 23.4145 46.4514 23.4973 46.7729 23.4973C46.9734 23.4973 47.1598 23.4667 47.3322 23.4054C47.5045 23.344 47.6586 23.2587 47.7945 23.1493C47.9304 23.0383 48.0431 22.9082 48.1326 22.7591C48.2237 22.6099 48.2867 22.4483 48.3215 22.2743H48.7888C48.7474 22.508 48.6695 22.7259 48.5552 22.9281C48.4425 23.1286 48.2983 23.3043 48.1226 23.4551C47.9486 23.6059 47.7481 23.7235 47.5211 23.8081C47.294 23.8926 47.0446 23.9348 46.7729 23.9348C46.3453 23.9348 45.9658 23.8279 45.6344 23.6142C45.3029 23.3987 45.0427 23.0955 44.8538 22.7044C44.6666 22.3133 44.5729 21.8517 44.5729 21.3198C44.5729 20.7878 44.6666 20.3263 44.8538 19.9352C45.0427 19.5441 45.3029 19.2417 45.6344 19.0279C45.9658 18.8124 46.3453 18.7047 46.7729 18.7047C47.0446 18.7047 47.294 18.747 47.5211 18.8315C47.7481 18.9144 47.9486 19.032 48.1226 19.1845C48.2983 19.3353 48.4425 19.5109 48.5552 19.7115C48.6695 19.912 48.7474 20.1299 48.7888 20.3652ZM50.8552 23.9522C50.6248 23.9522 50.4143 23.9075 50.2238 23.818C50.0332 23.7269 49.8816 23.5959 49.7689 23.4252C49.6562 23.2529 49.5998 23.0441 49.5998 22.7988C49.5998 22.6099 49.6355 22.4508 49.7067 22.3216C49.778 22.1923 49.8791 22.0862 50.01 22.0034C50.1409 21.9205 50.2959 21.8551 50.4748 21.807C50.6538 21.7589 50.851 21.7216 51.0665 21.6951C51.2802 21.6686 51.4609 21.6454 51.6084 21.6255C51.7575 21.6056 51.871 21.5742 51.9489 21.5311C52.0268 21.488 52.0657 21.4184 52.0657 21.3223V21.2328C52.0657 20.9726 51.9879 20.7679 51.8321 20.6188C51.678 20.468 51.4559 20.3926 51.1659 20.3926C50.8908 20.3926 50.6662 20.4531 50.4922 20.574C50.3199 20.695 50.1989 20.8375 50.1293 21.0016L49.7092 20.85C49.7954 20.6412 49.9147 20.4746 50.0672 20.3503C50.2196 20.2244 50.3903 20.1341 50.5792 20.0794C50.7682 20.023 50.9596 19.9949 51.1535 19.9949C51.2993 19.9949 51.4509 20.0139 51.6084 20.052C51.7674 20.0901 51.9149 20.1564 52.0508 20.2509C52.1867 20.3437 52.2969 20.4738 52.3814 20.6412C52.466 20.8069 52.5082 21.0173 52.5082 21.2725V23.8652H52.0657V23.2612H52.0384C51.9854 23.3739 51.9066 23.4833 51.8022 23.5893C51.6978 23.6954 51.5669 23.7824 51.4095 23.8503C51.2521 23.9183 51.0673 23.9522 50.8552 23.9522ZM50.9148 23.5471C51.1501 23.5471 51.354 23.4949 51.5263 23.3904C51.6987 23.286 51.8312 23.1477 51.9241 22.9753C52.0185 22.8013 52.0657 22.6099 52.0657 22.4011V21.8493C52.0326 21.8807 51.9771 21.9089 51.8992 21.9338C51.823 21.9586 51.7343 21.981 51.6332 22.0009C51.5338 22.0191 51.4343 22.0349 51.3349 22.0481C51.2355 22.0614 51.146 22.073 51.0665 22.0829C50.851 22.1094 50.6671 22.1509 50.5146 22.2072C50.3621 22.2636 50.2453 22.3414 50.1641 22.4409C50.0829 22.5386 50.0423 22.6646 50.0423 22.8187C50.0423 23.0507 50.1252 23.2305 50.2909 23.3581C50.4566 23.4841 50.6646 23.5471 50.9148 23.5471ZM53.6852 23.8652V20.0471H54.1153V20.6337H54.1476C54.2238 20.4415 54.3564 20.2865 54.5453 20.1689C54.7359 20.0495 54.9513 19.9899 55.1916 19.9899C55.2281 19.9899 55.2687 19.9907 55.3134 19.9924C55.3582 19.994 55.3955 19.9957 55.4253 19.9973V20.4473C55.4054 20.444 55.3706 20.439 55.3209 20.4324C55.2712 20.4257 55.2173 20.4224 55.1593 20.4224C54.9604 20.4224 54.7831 20.4647 54.6274 20.5492C54.4732 20.632 54.3514 20.7472 54.2619 20.8947C54.1725 21.0422 54.1277 21.2104 54.1277 21.3993V23.8652H53.6852ZM57.4388 23.9448C57.1256 23.9448 56.8513 23.8619 56.616 23.6962C56.3807 23.5305 56.1967 23.2993 56.0641 23.0027C55.9332 22.706 55.8678 22.3605 55.8678 21.9661C55.8678 21.5733 55.9332 21.2295 56.0641 20.9345C56.1967 20.6378 56.3815 20.4075 56.6185 20.2434C56.8555 20.0777 57.1314 19.9949 57.4462 19.9949C57.6783 19.9949 57.8713 20.0363 58.0254 20.1191C58.1796 20.2003 58.303 20.3014 58.3958 20.4224C58.4886 20.5434 58.5607 20.661 58.6121 20.7754H58.6519V18.7743H59.0968V23.8652H58.6643V23.1568H58.6121C58.5607 23.2728 58.4878 23.3921 58.3933 23.5147C58.2989 23.6357 58.1738 23.7376 58.018 23.8205C57.8639 23.9033 57.6708 23.9448 57.4388 23.9448ZM57.491 23.5396C57.7379 23.5396 57.9484 23.4725 58.1224 23.3382C58.2964 23.2024 58.429 23.0159 58.5201 22.7789C58.6129 22.5403 58.6593 22.2669 58.6593 21.9586C58.6593 21.6537 58.6137 21.3844 58.5226 21.1507C58.4314 20.9154 58.2989 20.7315 58.1249 20.5989C57.9509 20.4647 57.7396 20.3975 57.491 20.3975C57.2358 20.3975 57.0203 20.4672 56.8447 20.6064C56.6707 20.7439 56.5381 20.9303 56.447 21.1657C56.3575 21.401 56.3127 21.6653 56.3127 21.9586C56.3127 22.2553 56.3583 22.5229 56.4494 22.7615C56.5406 23.0002 56.6732 23.1899 56.8472 23.3308C57.0228 23.47 57.2374 23.5396 57.491 23.5396Z" fill="#C1C1C1"/>
<path d="M232.28 11.8131C238.458 19.2525 238.077 23.5267 232.28 31.0094" stroke="white" stroke-width="3" stroke-linecap="round"/>
<path d="M227.286 14.0281C231.347 19.6693 231.209 22.8917 227.286 28.7944" stroke="white" stroke-width="3" stroke-linecap="round"/>
<path d="M221.543 15.5046C225.604 19.7356 225.466 22.1523 221.543 26.5794" stroke="white" stroke-width="3" stroke-linecap="round"/>
<path d="M216.549 16.9813C218.58 20.084 218.51 21.8563 216.549 25.1028" stroke="white" stroke-width="3" stroke-linecap="round"/>
<defs>
<filter id="filter0_n_123_164" x="0" y="2.67798" width="259" height="158" filterUnits="userSpaceOnUse" color-interpolation-filters="sRGB">
<feFlood flood-opacity="0" result="BackgroundImageFix"/>
<feBlend mode="normal" in="SourceGraphic" in2="BackgroundImageFix" result="shape"/>
<feTurbulence type="fractalNoise" baseFrequency="2 2" stitchTiles="stitch" numOctaves="3" result="noise" seed="3057" />
<feColorMatrix in="noise" type="luminanceToAlpha" result="alphaNoise" />
<feComponentTransfer in="alphaNoise" result="coloredNoise1">
<feFuncA type="discrete" tableValues="1 1 1 1 1 1 1 1 1 1 1 1 1 1 1 1 1 1 1 1 1 1 1 1 1 1 1 1 1 1 1 1 1 1 1 1 1 1 1 1 1 1 1 1 1 1 1 1 1 1 1 0 0 0 0 0 0 0 0 0 0 0 0 0 0 0 0 0 0 0 0 0 0 0 0 0 0 0 0 0 0 0 0 0 0 0 0 0 0 0 0 0 0 0 0 0 0 0 0 0 "/>
</feComponentTransfer>
<feComposite operator="in" in2="shape" in="coloredNoise1" result="noise1Clipped" />
<feFlood flood-color="rgba(0, 0, 0, 0.25)" result="color1Flood" />
<feComposite operator="in" in2="noise1Clipped" in="color1Flood" result="color1" />
<feMerge result="effect1_noise_123_164">
<feMergeNode in="shape" />
<feMergeNode in="color1" />
</feMerge>
</filter>
<filter id="filter1_g_123_164" x="6.5" y="134.54" width="9" height="27.4604" filterUnits="userSpaceOnUse" color-interpolation-filters="sRGB">
<feFlood flood-opacity="0" result="BackgroundImageFix"/>
<feBlend mode="normal" in="SourceGraphic" in2="BackgroundImageFix" result="shape"/>
<feTurbulence type="fractalNoise" baseFrequency="2 2" numOctaves="3" seed="9319" />
<feDisplacementMap in="shape" scale="8" xChannelSelector="R" yChannelSelector="G" result="displacedImage" width="100%" height="100%" />
<feMerge result="effect1_texture_123_164">
<feMergeNode in="displacedImage"/>
</feMerge>
</filter>
<filter id="filter2_g_123_164" x="60" y="134.54" width="9" height="27.4604" filterUnits="userSpaceOnUse" color-interpolation-filters="sRGB">
<feFlood flood-opacity="0" result="BackgroundImageFix"/>
<feBlend mode="normal" in="SourceGraphic" in2="BackgroundImageFix" result="shape"/>
<feTurbulence type="fractalNoise" baseFrequency="2 2" numOctaves="3" seed="9319" />
<feDisplacementMap in="shape" scale="8" xChannelSelector="R" yChannelSelector="G" result="displacedImage" width="100%" height="100%" />
<feMerge result="effect1_texture_123_164">
<feMergeNode in="displacedImage"/>
</feMerge>
</filter>
<filter id="filter3_g_123_164" x="78" y="134.54" width="9" height="27.4604" filterUnits="userSpaceOnUse" color-interpolation-filters="sRGB">
<feFlood flood-opacity="0" result="BackgroundImageFix"/>
<feBlend mode="normal" in="SourceGraphic" in2="BackgroundImageFix" result="shape"/>
<feTurbulence type="fractalNoise" baseFrequency="2 2" numOctaves="3" seed="9319" />
<feDisplacementMap in="shape" scale="8" xChannelSelector="R" yChannelSelector="G" result="displacedImage" width="100%" height="100%" />
<feMerge result="effect1_texture_123_164">
<feMergeNode in="displacedImage"/>
</feMerge>
</filter>
<filter id="filter4_g_123_164" x="96" y="134.54" width="9" height="27.4604" filterUnits="userSpaceOnUse" color-interpolation-filters="sRGB">
<feFlood flood-opacity="0" result="BackgroundImageFix"/>
<feBlend mode="normal" in="SourceGraphic" in2="BackgroundImageFix" result="shape"/>
<feTurbulence type="fractalNoise" baseFrequency="2 2" numOctaves="3" seed="9319" />
<feDisplacementMap in="shape" scale="8" xChannelSelector="R" yChannelSelector="G" result="displacedImage" width="100%" height="100%" />
<feMerge result="effect1_texture_123_164">
<feMergeNode in="displacedImage"/>
</feMerge>
</filter>
<filter id="filter5_g_123_164" x="114" y="134.54" width="9" height="27.4604" filterUnits="userSpaceOnUse" color-interpolation-filters="sRGB">
<feFlood flood-opacity="0" result="BackgroundImageFix"/>
<feBlend mode="normal" in="SourceGraphic" in2="BackgroundImageFix" result="shape"/>
<feTurbulence type="fractalNoise" baseFrequency="2 2" numOctaves="3" seed="9319" />
<feDisplacementMap in="shape" scale="8" xChannelSelector="R" yChannelSelector="G" result="displacedImage" width="100%" height="100%" />
<feMerge result="effect1_texture_123_164">
<feMergeNode in="displacedImage"/>
</feMerge>
</filter>
<filter id="filter6_g_123_164" x="130.5" y="134.54" width="9" height="27.4604" filterUnits="userSpaceOnUse" color-interpolation-filters="sRGB">
<feFlood flood-opacity="0" result="BackgroundImageFix"/>
<feBlend mode="normal" in="SourceGraphic" in2="BackgroundImageFix" result="shape"/>
<feTurbulence type="fractalNoise" baseFrequency="2 2" numOctaves="3" seed="9319" />
<feDisplacementMap in="shape" scale="8" xChannelSelector="R" yChannelSelector="G" result="displacedImage" width="100%" height="100%" />
<feMerge result="effect1_texture_123_164">
<feMergeNode in="displacedImage"/>
</feMerge>
</filter>
<filter id="filter7_g_123_164" x="148" y="134.54" width="9" height="27.4604" filterUnits="userSpaceOnUse" color-interpolation-filters="sRGB">
<feFlood flood-opacity="0" result="BackgroundImageFix"/>
<feBlend mode="normal" in="SourceGraphic" in2="BackgroundImageFix" result="shape"/>
<feTurbulence type="fractalNoise" baseFrequency="2 2" numOctaves="3" seed="9319" />
<feDisplacementMap in="shape" scale="8" xChannelSelector="R" yChannelSelector="G" result="displacedImage" width="100%" height="100%" />
<feMerge result="effect1_texture_123_164">
<feMergeNode in="displacedImage"/>
</feMerge>
</filter>
<filter id="filter8_g_123_164" x="164.5" y="134.54" width="9" height="27.4604" filterUnits="userSpaceOnUse" color-interpolation-filters="sRGB">
<feFlood flood-opacity="0" result="BackgroundImageFix"/>
<feBlend mode="normal" in="SourceGraphic" in2="BackgroundImageFix" result="shape"/>
<feTurbulence type="fractalNoise" baseFrequency="2 2" numOctaves="3" seed="9319" />
<feDisplacementMap in="shape" scale="8" xChannelSelector="R" yChannelSelector="G" result="displacedImage" width="100%" height="100%" />
<feMerge result="effect1_texture_123_164">
<feMergeNode in="displacedImage"/>
</feMerge>
</filter>
<filter id="filter9_g_123_164" x="183.5" y="134.54" width="9" height="27.4604" filterUnits="userSpaceOnUse" color-interpolation-filters="sRGB">
<feFlood flood-opacity="0" result="BackgroundImageFix"/>
<feBlend mode="normal" in="SourceGraphic" in2="BackgroundImageFix" result="shape"/>
<feTurbulence type="fractalNoise" baseFrequency="2 2" numOctaves="3" seed="9319" />
<feDisplacementMap in="shape" scale="8" xChannelSelector="R" yChannelSelector="G" result="displacedImage" width="100%" height="100%" />
<feMerge result="effect1_texture_123_164">
<feMergeNode in="displacedImage"/>
</feMerge>
</filter>
<filter id="filter10_g_123_164" x="200.5" y="134.54" width="9" height="27.4604" filterUnits="userSpaceOnUse" color-interpolation-filters="sRGB">
<feFlood flood-opacity="0" result="BackgroundImageFix"/>
<feBlend mode="normal" in="SourceGraphic" in2="BackgroundImageFix" result="shape"/>
<feTurbulence type="fractalNoise" baseFrequency="2 2" numOctaves="3" seed="9319" />
<feDisplacementMap in="shape" scale="8" xChannelSelector="R" yChannelSelector="G" result="displacedImage" width="100%" height="100%" />
<feMerge result="effect1_texture_123_164">
<feMergeNode in="displacedImage"/>
</feMerge>
</filter>
<filter id="filter11_g_123_164" x="217.5" y="134.54" width="9" height="27.4604" filterUnits="userSpaceOnUse" color-interpolation-filters="sRGB">
<feFlood flood-opacity="0" result="BackgroundImageFix"/>
<feBlend mode="normal" in="SourceGraphic" in2="BackgroundImageFix" result="shape"/>
<feTurbulence type="fractalNoise" baseFrequency="2 2" numOctaves="3" seed="9319" />
<feDisplacementMap in="shape" scale="8" xChannelSelector="R" yChannelSelector="G" result="displacedImage" width="100%" height="100%" />
<feMerge result="effect1_texture_123_164">
<feMergeNode in="displacedImage"/>
</feMerge>
</filter>
<filter id="filter12_g_123_164" x="236.5" y="134.54" width="9" height="27.4604" filterUnits="userSpaceOnUse" color-interpolation-filters="sRGB">
<feFlood flood-opacity="0" result="BackgroundImageFix"/>
<feBlend mode="normal" in="SourceGraphic" in2="BackgroundImageFix" result="shape"/>
<feTurbulence type="fractalNoise" baseFrequency="2 2" numOctaves="3" seed="9319" />
<feDisplacementMap in="shape" scale="8" xChannelSelector="R" yChannelSelector="G" result="displacedImage" width="100%" height="100%" />
<feMerge result="effect1_texture_123_164">
<feMergeNode in="displacedImage"/>
</feMerge>
</filter>
<filter id="filter13_g_123_164" x="25" y="134.54" width="9" height="27.4604" filterUnits="userSpaceOnUse" color-interpolation-filters="sRGB">
<feFlood flood-opacity="0" result="BackgroundImageFix"/>
<feBlend mode="normal" in="SourceGraphic" in2="BackgroundImageFix" result="shape"/>
<feTurbulence type="fractalNoise" baseFrequency="2 2" numOctaves="3" seed="9319" />
<feDisplacementMap in="shape" scale="8" xChannelSelector="R" yChannelSelector="G" result="displacedImage" width="100%" height="100%" />
<feMerge result="effect1_texture_123_164">
<feMergeNode in="displacedImage"/>
</feMerge>
</filter>
<filter id="filter14_g_123_164" x="43.5" y="134.54" width="9" height="27.4604" filterUnits="userSpaceOnUse" color-interpolation-filters="sRGB">
<feFlood flood-opacity="0" result="BackgroundImageFix"/>
<feBlend mode="normal" in="SourceGraphic" in2="BackgroundImageFix" result="shape"/>
<feTurbulence type="fractalNoise" baseFrequency="2 2" numOctaves="3" seed="9319" />
<feDisplacementMap in="shape" scale="8" xChannelSelector="R" yChannelSelector="G" result="displacedImage" width="100%" height="100%" />
<feMerge result="effect1_texture_123_164">
<feMergeNode in="displacedImage"/>
</feMerge>
</filter>
<filter id="filter15_g_123_164" x="16.5" y="128.516" width="9" height="33.4839" filterUnits="userSpaceOnUse" color-interpolation-filters="sRGB">
<feFlood flood-opacity="0" result="BackgroundImageFix"/>
<feBlend mode="normal" in="SourceGraphic" in2="BackgroundImageFix" result="shape"/>
<feTurbulence type="fractalNoise" baseFrequency="2 2" numOctaves="3" seed="9319" />
<feDisplacementMap in="shape" scale="8" xChannelSelector="R" yChannelSelector="G" result="displacedImage" width="100%" height="100%" />
<feMerge result="effect1_texture_123_164">
<feMergeNode in="displacedImage"/>
</feMerge>
</filter>
<filter id="filter16_g_123_164" x="34" y="128.516" width="9" height="33.4839" filterUnits="userSpaceOnUse" color-interpolation-filters="sRGB">
<feFlood flood-opacity="0" result="BackgroundImageFix"/>
<feBlend mode="normal" in="SourceGraphic" in2="BackgroundImageFix" result="shape"/>
<feTurbulence type="fractalNoise" baseFrequency="2 2" numOctaves="3" seed="9319" />
<feDisplacementMap in="shape" scale="8" xChannelSelector="R" yChannelSelector="G" result="displacedImage" width="100%" height="100%" />
<feMerge result="effect1_texture_123_164">
<feMergeNode in="displacedImage"/>
</feMerge>
</filter>
<filter id="filter17_g_123_164" x="51.5" y="128.516" width="9" height="33.4839" filterUnits="userSpaceOnUse" color-interpolation-filters="sRGB">
<feFlood flood-opacity="0" result="BackgroundImageFix"/>
<feBlend mode="normal" in="SourceGraphic" in2="BackgroundImageFix" result="shape"/>
<feTurbulence type="fractalNoise" baseFrequency="2 2" numOctaves="3" seed="9319" />
<feDisplacementMap in="shape" scale="8" xChannelSelector="R" yChannelSelector="G" result="displacedImage" width="100%" height="100%" />
<feMerge result="effect1_texture_123_164">
<feMergeNode in="displacedImage"/>
</feMerge>
</filter>
<filter id="filter18_g_123_164" x="69" y="128.516" width="9" height="33.4839" filterUnits="userSpaceOnUse" color-interpolation-filters="sRGB">
<feFlood flood-opacity="0" result="BackgroundImageFix"/>
<feBlend mode="normal" in="SourceGraphic" in2="BackgroundImageFix" result="shape"/>
<feTurbulence type="fractalNoise" baseFrequency="2 2" numOctaves="3" seed="9319" />
<feDisplacementMap in="shape" scale="8" xChannelSelector="R" yChannelSelector="G" result="displacedImage" width="100%" height="100%" />
<feMerge result="effect1_texture_123_164">
<feMergeNode in="displacedImage"/>
</feMerge>
</filter>
<filter id="filter19_g_123_164" x="86.5" y="128.516" width="9" height="33.4839" filterUnits="userSpaceOnUse" color-interpolation-filters="sRGB">
<feFlood flood-opacity="0" result="BackgroundImageFix"/>
<feBlend mode="normal" in="SourceGraphic" in2="BackgroundImageFix" result="shape"/>
<feTurbulence type="fractalNoise" baseFrequency="2 2" numOctaves="3" seed="9319" />
<feDisplacementMap in="shape" scale="8" xChannelSelector="R" yChannelSelector="G" result="displacedImage" width="100%" height="100%" />
<feMerge result="effect1_texture_123_164">
<feMergeNode in="displacedImage"/>
</feMerge>
</filter>
<filter id="filter20_g_123_164" x="104" y="128.516" width="9" height="33.4839" filterUnits="userSpaceOnUse" color-interpolation-filters="sRGB">
<feFlood flood-opacity="0" result="BackgroundImageFix"/>
<feBlend mode="normal" in="SourceGraphic" in2="BackgroundImageFix" result="shape"/>
<feTurbulence type="fractalNoise" baseFrequency="2 2" numOctaves="3" seed="9319" />
<feDisplacementMap in="shape" scale="8" xChannelSelector="R" yChannelSelector="G" result="displacedImage" width="100%" height="100%" />
<feMerge result="effect1_texture_123_164">
<feMergeNode in="displacedImage"/>
</feMerge>
</filter>
<filter id="filter21_g_123_164" x="121.5" y="128.516" width="9" height="33.4839" filterUnits="userSpaceOnUse" color-interpolation-filters="sRGB">
<feFlood flood-opacity="0" result="BackgroundImageFix"/>
<feBlend mode="normal" in="SourceGraphic" in2="BackgroundImageFix" result="shape"/>
<feTurbulence type="fractalNoise" baseFrequency="2 2" numOctaves="3" seed="9319" />
<feDisplacementMap in="shape" scale="8" xChannelSelector="R" yChannelSelector="G" result="displacedImage" width="100%" height="100%" />
<feMerge result="effect1_texture_123_164">
<feMergeNode in="displacedImage"/>
</feMerge>
</filter>
<filter id="filter22_g_123_164" x="139" y="128.516" width="9" height="33.4839" filterUnits="userSpaceOnUse" color-interpolation-filters="sRGB">
<feFlood flood-opacity="0" result="BackgroundImageFix"/>
<feBlend mode="normal" in="SourceGraphic" in2="BackgroundImageFix" result="shape"/>
<feTurbulence type="fractalNoise" baseFrequency="2 2" numOctaves="3" seed="9319" />
<feDisplacementMap in="shape" scale="8" xChannelSelector="R" yChannelSelector="G" result="displacedImage" width="100%" height="100%" />
<feMerge result="effect1_texture_123_164">
<feMergeNode in="displacedImage"/>
</feMerge>
</filter>
<filter id="filter23_g_123_164" x="156.5" y="128.516" width="9" height="33.4839" filterUnits="userSpaceOnUse" color-interpolation-filters="sRGB">
<feFlood flood-opacity="0" result="BackgroundImageFix"/>
<feBlend mode="normal" in="SourceGraphic" in2="BackgroundImageFix" result="shape"/>
<feTurbulence type="fractalNoise" baseFrequency="2 2" numOctaves="3" seed="9319" />
<feDisplacementMap in="shape" scale="8" xChannelSelector="R" yChannelSelector="G" result="displacedImage" width="100%" height="100%" />
<feMerge result="effect1_texture_123_164">
<feMergeNode in="displacedImage"/>
</feMerge>
</filter>
<filter id="filter24_g_123_164" x="174" y="128.516" width="9" height="33.4839" filterUnits="userSpaceOnUse" color-interpolation-filters="sRGB">
<feFlood flood-opacity="0" result="BackgroundImageFix"/>
<feBlend mode="normal" in="SourceGraphic" in2="BackgroundImageFix" result="shape"/>
<feTurbulence type="fractalNoise" baseFrequency="2 2" numOctaves="3" seed="9319" />
<feDisplacementMap in="shape" scale="8" xChannelSelector="R" yChannelSelector="G" result="displacedImage" width="100%" height="100%" />
<feMerge result="effect1_texture_123_164">
<feMergeNode in="displacedImage"/>
</feMerge>
</filter>
<filter id="filter25_g_123_164" x="191.5" y="128.516" width="9" height="33.4839" filterUnits="userSpaceOnUse" color-interpolation-filters="sRGB">
<feFlood flood-opacity="0" result="BackgroundImageFix"/>
<feBlend mode="normal" in="SourceGraphic" in2="BackgroundImageFix" result="shape"/>
<feTurbulence type="fractalNoise" baseFrequency="2 2" numOctaves="3" seed="9319" />
<feDisplacementMap in="shape" scale="8" xChannelSelector="R" yChannelSelector="G" result="displacedImage" width="100%" height="100%" />
<feMerge result="effect1_texture_123_164">
<feMergeNode in="displacedImage"/>
</feMerge>
</filter>
<filter id="filter26_g_123_164" x="209" y="128.516" width="9" height="33.4839" filterUnits="userSpaceOnUse" color-interpolation-filters="sRGB">
<feFlood flood-opacity="0" result="BackgroundImageFix"/>
<feBlend mode="normal" in="SourceGraphic" in2="BackgroundImageFix" result="shape"/>
<feTurbulence type="fractalNoise" baseFrequency="2 2" numOctaves="3" seed="9319" />
<feDisplacementMap in="shape" scale="8" xChannelSelector="R" yChannelSelector="G" result="displacedImage" width="100%" height="100%" />
<feMerge result="effect1_texture_123_164">
<feMergeNode in="displacedImage"/>
</feMerge>
</filter>
<filter id="filter27_g_123_164" x="226.5" y="128.516" width="9" height="33.4839" filterUnits="userSpaceOnUse" color-interpolation-filters="sRGB">
<feFlood flood-opacity="0" result="BackgroundImageFix"/>
<feBlend mode="normal" in="SourceGraphic" in2="BackgroundImageFix" result="shape"/>
<feTurbulence type="fractalNoise" baseFrequency="2 2" numOctaves="3" seed="9319" />
<feDisplacementMap in="shape" scale="8" xChannelSelector="R" yChannelSelector="G" result="displacedImage" width="100%" height="100%" />
<feMerge result="effect1_texture_123_164">
<feMergeNode in="displacedImage"/>
</feMerge>
</filter>
<filter id="filter28_g_123_164" x="244" y="128.516" width="9" height="33.4839" filterUnits="userSpaceOnUse" color-interpolation-filters="sRGB">
<feFlood flood-opacity="0" result="BackgroundImageFix"/>
<feBlend mode="normal" in="SourceGraphic" in2="BackgroundImageFix" result="shape"/>
<feTurbulence type="fractalNoise" baseFrequency="2 2" numOctaves="3" seed="9319" />
<feDisplacementMap in="shape" scale="8" xChannelSelector="R" yChannelSelector="G" result="displacedImage" width="100%" height="100%" />
<feMerge result="effect1_texture_123_164">
<feMergeNode in="displacedImage"/>
</feMerge>
</filter>
<radialGradient id="paint0_radial_123_164" cx="0" cy="0" r="1" gradientTransform="matrix(165.711 -82.3836 68.7393 198.603 98.4445 151.557)" gradientUnits="userSpaceOnUse">
<stop offset="0.248595" stop-color="#51584D"/>
<stop offset="0.531692" stop-color="#395828"/>
<stop offset="0.833647" stop-color="#6E6E6E"/>
</radialGradient>
<linearGradient id="paint1_linear_123_164" x1="51.5" y1="64.4047" x2="51.5" y2="93.5953" gradientUnits="userSpaceOnUse">
<stop offset="0.144231" stop-color="#F1CF23"/>
<stop offset="0.841346" stop-color="#806A01"/>
</linearGradient>
</defs>
</svg>
