<svg width="236" height="317" viewBox="0 0 236 317" fill="none" xmlns="http://www.w3.org/2000/svg">
<rect x="3.00812" y="353.112" width="351.137" height="232.085" rx="20" transform="rotate(-90.47 3.00812 353.112)" fill="#395828"/>
<path d="M127.038 140.394L109.584 140.537L109.495 129.714L111.762 129.695L111.829 137.885L117.147 137.841L117.087 130.427L119.345 130.408L119.406 137.823L127.016 137.761L127.038 140.394ZM109.447 123.842L126.901 123.699L126.923 126.332L109.469 126.475L109.447 123.842ZM109.3 105.919L126.754 105.776L126.774 108.196L114.046 117.173L114.047 117.335L126.848 117.23L126.87 119.863L109.416 120.007L109.396 117.569L122.141 108.584L122.139 108.422L109.321 108.527L109.3 105.919ZM109.153 87.9899L126.607 87.8467L126.627 90.2671L113.899 99.244L113.9 99.4059L126.701 99.3009L126.723 101.934L109.269 102.078L109.249 99.6401L121.993 90.6546L121.992 90.4926L109.174 90.5978L109.153 87.9899ZM117.724 68.9154C119.588 68.9001 121.193 69.2279 122.539 69.8987C123.88 70.5695 124.916 71.4957 125.647 72.6773C126.373 73.8532 126.742 75.1939 126.754 76.6996C126.767 78.2109 126.42 79.5632 125.714 80.7565C125.002 81.9442 123.978 82.8845 122.643 83.5773C121.308 84.2701 119.711 84.6241 117.853 84.6393C115.99 84.6546 114.387 84.3268 113.047 83.656C111.7 82.9852 110.664 82.0618 109.939 80.8859C109.207 79.7044 108.835 78.358 108.823 76.8467C108.811 75.341 109.16 73.9944 109.872 72.8067C110.578 71.6133 111.599 70.6703 112.934 69.9775C114.264 69.2847 115.861 68.9307 117.724 68.9154ZM117.746 71.5233C116.325 71.5349 115.131 71.7749 114.163 72.243C113.19 72.7056 112.456 73.3366 111.963 74.1361C111.464 74.93 111.218 75.827 111.226 76.8269C111.235 77.8326 111.495 78.7282 112.007 79.5138C112.513 80.2995 113.257 80.9184 114.238 81.3706C115.213 81.8171 116.411 82.0346 117.832 82.0229C119.252 82.0113 120.449 81.7742 121.423 81.3116C122.39 80.8435 123.124 80.2124 123.623 79.4185C124.116 78.6247 124.359 77.7249 124.351 76.7193C124.343 75.7193 124.085 74.8265 123.579 74.0409C123.067 73.2496 122.323 72.6307 121.348 72.1841C120.367 71.7319 119.166 71.5116 117.746 71.5233ZM108.965 65.0454L123.14 60.071L123.139 59.875L108.884 55.1338L108.86 52.2873L126.366 58.4251L126.391 61.4677L108.988 67.8919L108.965 65.0454ZM126.296 49.9304L126.319 52.7258L108.813 46.5879L108.788 43.5454L126.191 37.1212L126.214 39.9165L111.971 44.9682L111.972 45.1046L126.296 49.9304ZM119.457 49.5177L119.383 40.4499L121.599 40.4317L121.673 49.4996L119.457 49.5177Z" fill="white"/>
<rect x="97.3026" y="315.055" width="65.0755" height="42.8779" rx="8" transform="rotate(-90.47 97.3026 315.055)" fill="url(#paint0_linear_147_246)"/>
<line x1="118.577" y1="314.38" x2="118.051" y2="250.307" stroke="#AFAFA7" stroke-linecap="round"/>
<line x1="139.427" y1="284.026" x2="97.5509" y2="284.37" stroke="#AFAFA7" stroke-linecap="round"/>
<line x1="0.5" y1="-0.5" x2="67.3836" y2="-0.5" transform="matrix(0.54145 -0.840733 0.823537 0.567263 101.012 311.635)" stroke="#AFAFA7" stroke-linecap="round"/>
<line x1="0.5" y1="-0.5" x2="69.1809" y2="-0.5" transform="matrix(-0.523845 -0.851813 0.835719 -0.549158 135.725 312.706)" stroke="#AFAFA7" stroke-linecap="round"/>
<path d="M17.7764 38.0689C28.6351 29.6042 34.9173 30.0699 45.9727 37.8376" stroke="white" stroke-width="3" stroke-linecap="round"/>
<path d="M21.0854 44.8129C29.3264 39.2394 34.061 39.3878 42.7749 44.635" stroke="white" stroke-width="3" stroke-linecap="round"/>
<path d="M23.3182 52.5805C29.4877 47.0239 33.039 47.1821 39.5853 52.447" stroke="white" stroke-width="3" stroke-linecap="round"/>
<path d="M25.5427 59.3333C30.0774 56.5432 32.6814 56.6155 37.4718 59.2354" stroke="white" stroke-width="3" stroke-linecap="round"/>
<defs>
<linearGradient id="paint0_linear_147_246" x1="110.206" y1="315.055" x2="152.446" y2="354.773" gradientUnits="userSpaceOnUse">
<stop offset="0.144231" stop-color="white"/>
<stop offset="0.841346" stop-color="#1D1D1D"/>
</linearGradient>
</defs>
</svg>
