<svg width="77" height="46" viewBox="0 0 77 46" fill="none" xmlns="http://www.w3.org/2000/svg">
<rect width="77" height="46" rx="5" fill="#395828"/>
<path d="M46.9804 25.3695V21.7331H49.2353V22.2054H47.529V23.3134H49.0738V23.7839H47.529V25.3695H46.9804ZM50.4587 21.7331V25.3695H49.91V21.7331H50.4587ZM54.1927 21.7331V25.3695H53.6885L51.8401 22.7026H51.8063V25.3695H51.2577V21.7331H51.7655L53.6157 24.4036H53.6494V21.7331H54.1927ZM57.9281 21.7331V25.3695H57.4238L55.5754 22.7026H55.5417V25.3695H54.9931V21.7331H55.5009L57.351 24.4036H57.3847V21.7331H57.9281ZM61.8871 23.5513C61.8871 23.9396 61.8161 24.2734 61.6741 24.5527C61.532 24.8309 61.3373 25.0452 61.0899 25.1955C60.8437 25.3446 60.5637 25.4192 60.2501 25.4192C59.9352 25.4192 59.6541 25.3446 59.4067 25.1955C59.1605 25.0452 58.9663 24.8303 58.8243 24.551C58.6822 24.2716 58.6112 23.9384 58.6112 23.5513C58.6112 23.1631 58.6822 22.8299 58.8243 22.5517C58.9663 22.2723 59.1605 22.0581 59.4067 21.9089C59.6541 21.7586 59.9352 21.6834 60.2501 21.6834C60.5637 21.6834 60.8437 21.7586 61.0899 21.9089C61.3373 22.0581 61.532 22.2723 61.6741 22.5517C61.8161 22.8299 61.8871 23.1631 61.8871 23.5513ZM61.3438 23.5513C61.3438 23.2554 61.2959 23.0062 61.2 22.8038C61.1053 22.6002 60.9751 22.4463 60.8094 22.3422C60.6448 22.2368 60.4584 22.1841 60.2501 22.1841C60.0405 22.1841 59.8535 22.2368 59.689 22.3422C59.5244 22.4463 59.3942 22.6002 59.2984 22.8038C59.2037 23.0062 59.1563 23.2554 59.1563 23.5513C59.1563 23.8473 59.2037 24.097 59.2984 24.3006C59.3942 24.503 59.5244 24.6569 59.689 24.7623C59.8535 24.8664 60.0405 24.9185 60.2501 24.9185C60.4584 24.9185 60.6448 24.8664 60.8094 24.7623C60.9751 24.6569 61.1053 24.503 61.2 24.3006C61.2959 24.097 61.3438 23.8473 61.3438 23.5513ZM62.7083 21.7331L63.7204 24.6948H63.7612L64.7733 21.7331H65.3664L64.0578 25.3695H63.4239L62.1153 21.7331H62.7083ZM65.8276 25.3695H65.2452L66.5538 21.7331H67.1877L68.4962 25.3695H67.9139L66.8858 22.3937H66.8574L65.8276 25.3695ZM65.9252 23.9455H67.8144V24.4071H65.9252V23.9455Z" fill="white"/>
<rect x="8.17569" y="18.7507" width="14.2703" height="8.49853" rx="1" fill="url(#paint0_linear_190_697)"/>
<line x1="8.67569" y1="22.5674" x2="21.946" y2="22.5674" stroke="#AFAFA7" stroke-linecap="round"/>
<line x1="14.5135" y1="26.7493" x2="14.5135" y2="19.2507" stroke="#AFAFA7" stroke-linecap="round"/>
<line x1="0.5" y1="-0.5" x2="13.9706" y2="-0.5" transform="matrix(0.860272 0.509835 -0.612841 0.790206 8.91891 19.4915)" stroke="#AFAFA7" stroke-linecap="round"/>
<line x1="0.5" y1="-0.5" x2="14.4019" y2="-0.5" transform="matrix(0.877813 -0.479004 0.58113 0.81381 8.62161 26.3697)" stroke="#AFAFA7" stroke-linecap="round"/>
<path d="M69.0563 3.43927C70.8929 5.60518 70.7795 6.84954 69.0563 9.02805" stroke="white" stroke-linecap="round"/>
<path d="M67.5716 4.08411C68.7789 5.7265 68.7378 6.66465 67.5716 8.38317" stroke="white" stroke-linecap="round"/>
<path d="M65.8642 4.51404C67.0716 5.74584 67.0305 6.44944 65.8642 7.73834" stroke="white" stroke-linecap="round"/>
<path d="M64.3794 4.94391C64.9831 5.84723 64.9626 6.3632 64.3794 7.30839" stroke="white" stroke-linecap="round"/>
<defs>
<linearGradient id="paint0_linear_190_697" x1="11.0053" y1="18.7507" x2="19.3866" y2="27.4701" gradientUnits="userSpaceOnUse">
<stop offset="0.144231" stop-color="white"/>
<stop offset="0.841346" stop-color="#1D1D1D"/>
</linearGradient>
</defs>
</svg>
